# xmcd CD database file
#
# Track frame offsets:
#	150
#	24310
#	46437
#	63647
#	86902
#	109915
#	132990
#	148970
#	173815
#	190072
#	218402
#
# Disc length: 3266 seconds
#
# Revision: 0
# Processed by: cddbd v1.5PL3 Copyright (c) Steve Scherf et al.
# Submitted via: CDex 1.51
#
DISCID=a10cc00b
DTITLE=Sheila Majid - WANITA
DYEAR=1995
DGENRE=Pop
TTITLE0=NADA
TTITLE1=WANITA
TTITLE2=GERIMIS SEMALAM
TTITLE3=DIA
TTITLE4=BAHAGIA
TTITLE5=SELAMANYA
TTITLE6=HASRAT CINTA
TTITLE7=GEMILANG
TTITLE8=KASIH
TTITLE9=PERSIS
TTITLE10=EMOSI
EXTD=YEAR: 1995
EXTT0=
EXTT1=
EXTT2=
EXTT3=
EXTT4=
EXTT5=
EXTT6=
EXTT7=
EXTT8=
EXTT9=
EXTT10=
PLAYORDER=
